<svg id="flag" xmlns="http://www.w3.org/2000/svg" viewBox="0 0 96.99 123.68"><defs><style>.cls-1{fill:#da5090;}.cls-2{fill:#e51e46;}.cls-3{fill:#f48002;}.cls-4{fill:#fbae01;}.cls-5{fill:#94b740;}.cls-6{fill:#6ec9ef;}.cls-7{fill:#a96fda;}</style></defs><title>flag</title><path id="flagpole" class="cls-1" d="M6.39,1.83S1.83-2.28,0,1.83V121s3.43,5.94,6.39,0Z"/><path id="flag_red" class="cls-2" d="M6.39,10.2s12.34,11,44.92-2.13,46-.88,45.68,3.21v6.53s-17.06-8.3-43.24,1.44c-27.51,10.24-39,6.48-47.36,1.91Z"/><path id="flag_orange" class="cls-3" d="M6.39,21.08S18.86,32.37,51.31,19c25.58-10.58,46-3.76,45.68.33v9.41s-15.23-9.44-43.24,0S14.77,36.61,6.39,32Z"/><path id="flag_yellow" class="cls-4" d="M6.39,30.8s12.47,11.29,44.92-2.13C76.89,18.1,97.29,24.91,97,29v9.41s-15.23-9.44-43.24,0-39,7.91-47.36,3.35Z"/><path id="flag_green" class="cls-5" d="M6.39,40.53s12.47,11.28,44.92-2.14c25.58-10.57,46-3.75,45.68.34v9.41s-15.23-9.44-43.24,0-39,7.92-47.36,3.35Z"/><path id="flag_blue" class="cls-6" d="M6.39,50.27s12.47,11.29,44.92-2.13c25.58-10.58,46-3.76,45.68.33v9.41s-15.23-9.44-43.24,0-39,7.92-47.36,3.35Z"/><path id="flag_purple" class="cls-7" d="M6.39,60S18.86,71.3,51.31,57.88c25.58-10.57,46-3.76,45.68.34v9.41s-15.23-9.44-43.24,0S14.77,75.54,6.39,71Z"/></svg>