<svg id="flag" xmlns="http://www.w3.org/2000/svg" viewBox="0 0 216 216"><defs><style>.cls-1{fill:#da5090;}.cls-2{fill:#e51e46;}.cls-3{fill:#f48002;}.cls-4{fill:#fbae01;}.cls-5{fill:#94b740;}.cls-6{fill:#6ec9ef;}.cls-7{fill:#a96fda;}</style></defs><title>azores_mikka_SVGicons</title><path id="flagpole" class="cls-1" d="M65.9,48s-4.57-4.11-6.4,0V167.2s3.43,5.94,6.4,0Z"/><path id="flag_red" class="cls-2" d="M65.9,56.36s12.33,11,44.91-2.13,46-.88,45.68,3.21V64s-17.06-8.3-43.25,1.44c-27.51,10.24-39,6.48-47.35,1.91Z"/><path id="flag_orange" class="cls-3" d="M65.9,67.24s12.46,11.29,44.91-2.13c25.58-10.58,46-3.76,45.68.33v9.41s-15.23-9.44-43.25,0-39,7.92-47.35,3.35Z"/><path id="flag_yellow" class="cls-4" d="M65.9,77s12.46,11.29,44.91-2.13c25.58-10.57,46-3.76,45.68.34v9.41s-15.23-9.44-43.25,0-39,7.91-47.35,3.35Z"/><path id="flag_green" class="cls-5" d="M65.9,86.69S78.36,98,110.81,84.55c25.58-10.57,46-3.76,45.68.34V94.3s-15.23-9.44-43.25,0-39,7.92-47.35,3.35Z"/><path id="flag_blue" class="cls-6" d="M65.9,96.43s12.46,11.28,44.91-2.13c25.58-10.58,46-3.76,45.68.33V104s-15.23-9.44-43.25,0-39,7.92-47.35,3.35Z"/><path id="flag_purple" class="cls-7" d="M65.9,106.17s12.46,11.29,44.91-2.13c25.58-10.57,46-3.76,45.68.34v9.41s-15.23-9.44-43.25,0-39,7.91-47.35,3.35Z"/></svg>