<svg xmlns="http://www.w3.org/2000/svg" xmlns:xlink="http://www.w3.org/1999/xlink" viewBox="0 0 216 216"><defs><style>.cls-1{fill:none;}.cls-2{clip-path:url(#clip-path);}.cls-3{fill:#e51e46;}.cls-4{fill:#f48002;}.cls-5{fill:#fbae01;}.cls-6{fill:#94b740;}.cls-7{fill:#6ec9ef;}.cls-8{fill:#a96fda;}.cls-9{clip-path:url(#clip-path-2);}</style><clipPath id="clip-path"><path id="gaysymbol_left" class="cls-1" d="M89.91,166.93c-2.47-.67-5-1.25-7.4-2C58,156.86,48.87,126.05,65.18,106c1-1.26,1.16-2-.12-3.09-1.56-1.37-2.88-3-4.92-4.32,0,1.33,0,2.67,0,4a3.52,3.52,0,0,1-3.56,3.73c-2.2.16-4-1-4-3.17-.22-5-.23-10.11,0-15.15.09-2.17,1.85-3.28,4-3.3,4.45,0,8.9-.06,13.35,0a4,4,0,0,1,4.18,4.08C74,91,72.34,92.5,69.89,92.59c-1.18,0-2.37,0-4.39,0,2.39,2.3,4.25,4.07,6.1,5.87,1.12,1.09,1.71-.14,2.41-.57q17.24-10.68,35.88-2.77a36.42,36.42,0,0,1,16.51,14.35c2,3.06,1.73,5.47-.57,6.8s-4.22.44-6.1-2.59a29.68,29.68,0,1,0,3.15,24.52c.08-.25.14-.51.21-.75,1-3.31,2.93-4.7,5.34-3.91s3.11,3,2.23,6.1C126.58,154.26,112.5,166,98.47,166.5c-.89.44-1.94-.18-2.8.43Z"/></clipPath><clipPath id="clip-path-2"><path id="gaysymbol_right" class="cls-1" d="M150.15,57c-2,0-3.19.06-4.39,0a3.92,3.92,0,0,1-3.87-3.83c0-2.22,1.29-3.82,3.44-3.91,4.88-.21,9.77-.2,14.65,0A3.64,3.64,0,0,1,163.56,53c.11,4.62.13,9.24,0,13.87a3.78,3.78,0,0,1-4,3.88c-2.31,0-3.66-1.52-3.73-4.1,0-1.21,0-2.42,0-4.36-2.62,2.62-4.87,4.82-7.06,7.08-.85.88.19,1.43.58,2a37.12,37.12,0,0,1,7.19,24.26,37.48,37.48,0,0,1-69.94,16.8c-1.59-2.77-1.22-5,1-6.29s4-.43,5.71,2.36c6.76,11.17,18.71,16.64,31.41,14.37,11.71-2.1,21.2-11.73,23.62-24,3.2-16.21-8.72-32.31-25.12-34.65A29.91,29.91,0,0,0,89.92,87.93c-.52,2.75-2.3,4.08-4.76,3.65-2.27-.4-3.49-2.56-2.94-5.23a37.51,37.51,0,0,1,59-23c1.18.85,1.77.82,2.72-.21C145.76,61.18,147.74,59.36,150.15,57Z"/></clipPath></defs><title>azores_mikka_SVGicons</title><g id="gay"><g id="gayleft"><g class="cls-2"><g id="gay_color"><rect id="gay_red" class="cls-3" x="50.93" y="84.17" width="80.07" height="13.72"/><rect id="gay_orange" class="cls-4" x="50.93" y="97.89" width="80.07" height="13.72"/><rect id="gay_yellow" class="cls-5" x="50.93" y="111.72" width="80.07" height="13.72"/><rect id="gay_green" class="cls-6" x="50.93" y="125.65" width="80.07" height="13.72"/><rect id="gay_blue" class="cls-7" x="50.93" y="139.37" width="80.07" height="13.72"/><rect id="gay_purple" class="cls-8" x="50.93" y="153.21" width="80.07" height="13.72"/></g></g></g><g id="gayright"><g class="cls-9"><g id="gay_color-2" data-name="gay_color"><rect id="gay2_red" class="cls-3" x="80.5" y="118.27" width="83.76" height="14.24" transform="translate(244.75 250.78) rotate(180)"/><rect id="gay2_orange" class="cls-4" x="80.5" y="104.03" width="83.76" height="14.24" transform="translate(244.75 222.3) rotate(180)"/><rect id="gay2_yellow" class="cls-5" x="80.5" y="89.67" width="83.76" height="14.24" transform="translate(244.75 193.59) rotate(180)"/><rect id="gay2_green" class="cls-6" x="80.5" y="75.22" width="83.76" height="14.24" transform="translate(244.75 164.69) rotate(180)"/><rect id="gay2_blue" class="cls-7" x="80.5" y="60.98" width="83.76" height="14.24" transform="translate(244.75 136.21) rotate(180)"/><rect id="gay2_purple" class="cls-8" x="80.5" y="46.63" width="83.76" height="14.24" transform="translate(244.75 107.5) rotate(180)"/></g></g></g></g></svg>