<svg xmlns="http://www.w3.org/2000/svg" xmlns:xlink="http://www.w3.org/1999/xlink" viewBox="0 0 216 216"><defs><style>.cls-1{fill:none;}.cls-2{clip-path:url(#clip-path);}.cls-3{fill:#e51e46;}.cls-4{fill:#f48002;}.cls-5{fill:#fbae01;}.cls-6{fill:#94b740;}.cls-7{fill:#6ec9ef;}.cls-8{fill:#a96fda;}.cls-9{clip-path:url(#clip-path-2);}</style><clipPath id="clip-path"><path id="lesbiansymbol_right" class="cls-1" d="M148.58,49.09a19.35,19.35,0,0,1,4.21,3.81c1,1.14,1.75,1.48,2.8.09a12,12,0,0,1,2.25-2.19A3.71,3.71,0,0,1,163,51c1.63,1.47,1.6,3.54.13,5.36-1,1.26-3.22,2.15-2.95,3.62s2.11,2.41,3.25,3.61c1.9,2,2,4.38.36,6S160,71,158,69.1c-.32-.29-.61-.61-.92-.92-2.93-2.92-2.87-2.86-5.91.1-1.09,1.06-1.16,1.64-.24,3,15.69,22,4.61,51.79-21.6,58.21A37.31,37.31,0,0,1,88.85,112c-1.64-2.88-1.34-5.07.86-6.36s4.07-.44,5.76,2.28c.32.52.62,1,1,1.55,7.25,10.16,17.17,14.73,29.43,12.69,11.67-1.94,19.65-9,23.2-20.36,5.08-16.29-4.56-33-21.19-37.19C112,60.58,95.56,71,92.1,87.22c-.65,3.08-2.25,4.43-4.69,4S84,88.84,84.58,85.75C89.67,59.81,120.1,47.49,142,62.5c.79.54,1.62,1.92,2.5,1.34a22.69,22.69,0,0,0,3.92-3.8c.42-.44-.22-.75-.47-1-.78-.83-1.6-1.61-2.4-2.42-2.9-3-2.61-5.29.94-7.5Z"/></clipPath><clipPath id="clip-path-2"><path id="lesbiansymbol_left" class="cls-1" d="M66.91,126.78c0,17.74,10.7,29.92,25.65,32.11,13.93,2,27.89-7.09,31.93-20.88.1-.33.24-.64.35-1,.91-2.8,2.58-3.86,5-3.19,2.11.58,3.14,2.62,2.42,5.29a34.77,34.77,0,0,1-6.55,13.22c-10,12.29-23.06,17-38.39,13.29C72.23,162,63,151.74,59.81,136.51c-2.16-10.39.24-20,6.42-28.68.88-1.23,1.09-2-.25-2.85-.07,0-.12-.13-.18-.19-1.31-1.28-2.48-3.39-3.95-3.63s-2.62,2.19-4,3.36c-1.92,1.65-4.33,1.75-5.85.16s-1.35-3.81.29-5.64a12.09,12.09,0,0,1,1.29-1.29c1.78-1.49,3.09-2.75.42-4.87a3.81,3.81,0,0,1,5.41-5.37c2,2.34,3.2,1.71,4.69-.28a9,9,0,0,1,2.08-2,3.67,3.67,0,0,1,5,.28c1.58,1.55,1.56,3.38.34,5.21-.15.21-.36.38-.52.58-1.12,1.4-3.8,2.62-3.32,4,.7,1.94,3,3.3,4.54,4.93.78.79,1.19,0,1.7-.34a36,36,0,0,1,24.17-7.36c13.44.77,23.52,7.22,30.47,18.64a3.78,3.78,0,0,1-1.38,5.6c-2,1.09-3.95.38-5.44-2-9.6-15.14-28.27-19.26-42.39-9.22C71.17,111.42,67.1,119.56,66.91,126.78Z"/></clipPath></defs><title>azores_mikka_SVGicons</title><g id="lesbian"><g id="lesbianright"><g class="cls-2"><g id="lesbian_color"><rect id="lesbian_red" class="cls-3" x="66.56" y="49.62" width="116.29" height="13.53"/><rect id="lesbian_orange" class="cls-4" x="66.56" y="63.15" width="116.29" height="13.53"/><rect id="lesbian_yellow" class="cls-5" x="66.56" y="76.8" width="116.29" height="13.53"/><rect id="lesbian_green" class="cls-6" x="66.56" y="90.53" width="116.29" height="13.53"/><rect id="lesbian_blue" class="cls-7" x="66.56" y="104.06" width="116.29" height="13.53"/><rect id="lesbian_purple" class="cls-8" x="66.56" y="117.71" width="116.29" height="13.53"/></g></g></g><g id="lesbianleft"><g class="cls-9"><g id="lesbian_color-2" data-name="lesbian_color"><rect id="lesbian2_red" class="cls-3" x="30.14" y="152.94" width="116.29" height="13.53" transform="translate(176.56 319.41) rotate(180)"/><rect id="lesbian2_orange" class="cls-4" x="30.14" y="139.4" width="116.29" height="13.53" transform="translate(176.56 292.34) rotate(180)"/><rect id="lesbian2_yellow" class="cls-5" x="30.14" y="125.76" width="116.29" height="13.53" transform="translate(176.56 265.05) rotate(180)"/><rect id="lesbian2_green" class="cls-6" x="30.14" y="112.03" width="116.29" height="13.53" transform="translate(176.56 237.59) rotate(180)"/><rect id="lesbian2_blue" class="cls-7" x="30.14" y="98.49" width="116.29" height="13.53" transform="translate(176.56 210.52) rotate(180)"/><rect id="lesbian2_purple" class="cls-8" x="30.14" y="84.85" width="116.29" height="13.53" transform="translate(176.56 183.24) rotate(180)"/></g></g></g></g></svg>