<svg xmlns="http://www.w3.org/2000/svg" xmlns:xlink="http://www.w3.org/1999/xlink" viewBox="0 0 216 216"><defs><style>.cls-1{fill:none;}.cls-2{fill:#fed1de;}.cls-3{clip-path:url(#clip-path);}.cls-4{fill:#e51e46;}.cls-5{fill:#f48002;}.cls-6{fill:#fbae01;}.cls-7{fill:#94b740;}.cls-8{fill:#6ec9ef;}.cls-9{fill:#a96fda;}</style><clipPath id="clip-path"><path id="heart" class="cls-1" d="M107.84,86.18s16.28-22.37,38.43-4.29c0,0,14.69,13.33,1.8,31.64l-40.23,40.91h.32L67.93,113.53C55,95.22,69.73,81.89,69.73,81.89c22.15-18.08,38.43,4.29,38.43,4.29Z"/></clipPath></defs><title>azores_mikka_SVGicons</title><g id="handholding"><path id="hand" class="cls-2" d="M126.4,170.14H86.74V150.2s-8.92-10.45-9.84-24,0-49.5,0-49.5.3-7.07,7.68-6.77a5.28,5.28,0,0,1,5.54,4.92V62.47s-.51-6.76,6.66-6.86,7.17,4.09,7.38,5.73V52.12s-.31-6.46,6.45-6.25,7.08,5.43,7.08,5.43v9.63s.3-6.86,6.66-6.55,7.17,4.5,7.17,6.35v87.93s-4.92,5.74-4.92,11.68S126.4,170.14,126.4,170.14Z"/><g id="hand_heart"><g class="cls-3"><g id="rainbow-2" data-name="rainbow"><path id="rainbow_red" class="cls-4" d="M108.12,85.49c88.57,4,88.06,87.26,88.06,87.26H211S206.21,74.08,108.12,72.06h0c-98,4-103.07,100.69-103.07,100.69H19.82s-.28-83.23,88.3-87.26Z"/><path id="rainbow_orange" class="cls-5" d="M108.12,98.58c71.62,3.36,75.41,74.17,75.41,74.17h13.09s.43-87.26-88.5-87.26-88.3,87.26-88.3,87.26H32.91s1.4-70.14,75.21-74.17Z"/><path id="rainbow_yellow" class="cls-6" d="M108.12,112.42c58.58.76,61.9,60.33,61.9,60.33h13.51s-2.73-71.4-75.41-74.17h0c-72.68,2.77-75.21,74.17-75.21,74.17h13.5s3.12-59.57,61.71-60.33Z"/><path id="rainbow_green" class="cls-7" d="M108.12,124.76c46.41,1.68,48.52,48,48.52,48h14.25s-4.61-60.58-62.77-60.33c-58.17-.25-61.71,60.33-61.71,60.33H60.67S61.7,126.44,108.12,124.76Z"/><path id="rainbow_blue" class="cls-8" d="M108.12,138.85c30-1.25,35.1,33.9,35.1,33.9h14.85s-5.6-48.82-49.95-48.82-49,48.82-49,48.82H72.34S78.11,137.6,108.12,138.85Z"/><path id="rainbow_purple" class="cls-9" d="M108.12,152.7c20.44,0,22.34,20.05,22.34,20.05H143.8s-1.4-33.39-35.68-34.4c-34.29,1-36.36,34.4-36.36,34.4H85.1S87.67,152.7,108.12,152.7Z"/></g></g></g><path id="hand_thumb" class="cls-2" d="M126.4,170.14c-.93-15.73,5.12-21.48,5.12-21.48a56.09,56.09,0,0,0,9.63-8.76c5.23-5.84,4.62-15.83,4.62-15.83V100.85s-.21-6.3-7.23-6.45c0,0-7,0-7,5.84L129,133.5l-6.33,24.26Z"/></g></svg>