<svg xmlns="http://www.w3.org/2000/svg" viewBox="0 0 216 216"><defs><style>.cls-1{fill:#e51e46;}.cls-2{fill:#fbae01;}.cls-3{fill:#f48002;}.cls-4{fill:#94b740;}.cls-5{fill:#a96fda;}.cls-6{fill:#6ec9ef;}.cls-7{fill:#fed1de;stroke:#fed1de;stroke-miterlimit:10;}.cls-8{fill:#fda5d8;}</style></defs><title>azores_mikka_SVGicons</title><g id="oneearth"><g id="person_red"><circle id="face_red" class="cls-1" cx="50.71" cy="87.26" r="7.81"/><path id="body_red" class="cls-1" d="M72.4,137.24l5.73-2.48-7.3-16.82s3.93-1.07,2.8-5.63S68,99.21,68,99.21s-4.19-8.86-14.13-4.78C44.06,98.91,47.67,108,47.67,108s3.12,9.16,5.69,13.1,6,1.8,6,1.8l7.3,16.81Z"/></g><g id="person_yellow"><circle id="face_yellow" class="cls-2" cx="96.79" cy="67.56" r="7.81"/><path id="body_yellow" class="cls-2" d="M101.26,121.86l6.22-.51L106,103.08s4.07.24,4.47-4.44-1.17-14.23-1.17-14.23-1.12-9.73-11.84-9.06C86.75,76.44,87.24,86.23,87.24,86.23s0,9.68,1.17,14.23,5.13,3.64,5.13,3.64L95,122.37Z"/></g><g id="person_orange"><circle id="face_orange" class="cls-3" cx="73.64" cy="75.48" r="7.81"/><path id="body_orange" class="cls-3" d="M84.5,128.87l6.11-1.24-3.65-18s4.06-.23,3.91-4.93-2.85-14-2.85-14-2.25-9.53-12.82-7.61c-10.48,2.36-8.84,12-8.84,12s1.16,9.61,2.85,14,5.52,3,5.52,3l3.65,18Z"/></g><g id="person_green"><circle id="face_green" class="cls-4" cx="121" cy="67.54" r="7.81"/><path id="body_green" class="cls-4" d="M117,121.88l6.22.46,1.37-18.28s4,.88,5.09-3.68,1.07-14.24,1.07-14.24.41-9.79-10.28-10.8c-10.73-.58-11.77,9.16-11.77,9.16s-1.49,9.56-1.06,14.23,4.5,4.4,4.5,4.4l-1.36,18.28Z"/></g><g id="person_purple"><circle id="face_purple" class="cls-5" cx="165.29" cy="87.26" r="7.81"/><path id="body_purple" class="cls-5" d="M144.13,137.47l5.75,2.42L157,123s3.49,2.1,6-1.87S168.55,108,168.55,108s3.52-9.15-6.3-13.52c-10-4-14.07,4.93-14.07,4.93s-4.47,8.59-5.54,13.16,2.86,5.6,2.86,5.6l-7.12,16.9Z"/></g><g id="person_blue"><circle id="face_blue" class="cls-6" cx="144.37" cy="75.3" r="7.81"/><path id="body_blue" class="cls-6" d="M132.11,128.39l6.08,1.4,4.12-17.86s3.8,1.47,5.6-2.86,3.22-13.92,3.22-13.92,1.9-9.6-8.52-12.23c-10.51-2.21-13,7.26-13,7.26s-2.93,9.22-3.21,13.91,3.78,5,3.78,5L126,127Z"/></g><g id="earth"><path id="earth-2" data-name="earth" class="cls-7" d="M107.43,155.69H65.86c-5.4,0-4.32-2.78-4.32-2.78s6.49-32.45,45.89-33.37l2.14.07c39.4.93,45.89,33.38,45.89,33.38s1.08,2.78-4.33,2.78H109.57Z"/><path id="earthcountry_right" class="cls-8" d="M121.6,120.72s-6.93,14.19,5.12,17,5.56,10,13.21,10.2a12.88,12.88,0,0,0,11.2-6.19S144.88,126,121.6,120.72Z"/><path id="earthcountry_middle" class="cls-8" d="M102.62,141.17s1.39-3.94,8.34-1.39,5.1,8.58,1.85,8.11S102.85,148.12,102.62,141.17Z"/><path id="earthcountry_left" class="cls-8" d="M64.38,144.26S67.83,151,80,147.78s9.63-19.65,2.67-22.51C82.69,125.27,72.31,130.49,64.38,144.26Z"/></g></g></svg>