<svg xmlns="http://www.w3.org/2000/svg" xmlns:xlink="http://www.w3.org/1999/xlink" viewBox="0 0 216 216"><defs><style>.cls-1{fill:none;}.cls-2{clip-path:url(#clip-path);}.cls-3{fill:#e51e46;}.cls-4{fill:#f48002;}.cls-5{fill:#fbae01;}.cls-6{fill:#94b740;}.cls-7{fill:#6ec9ef;}.cls-8{fill:#a96fda;}.cls-9{fill:#fed1de;}.cls-10{fill:#f4c1d4;}.cls-11{fill:#fff;}</style><clipPath id="clip-path"><path id="heart" class="cls-1" d="M107.8,71.09s21.11-29,49.84-5.57c0,0,19.06,17.3,2.35,41.05L107.8,159.64h.4L56,106.57c-16.71-23.75,2.35-41,2.35-41,28.73-23.46,49.84,5.57,49.84,5.57Z"/></clipPath></defs><title>azores_mikka_SVGicons</title><g id="fist"><g id="heart-2" data-name="heart"><g class="cls-2"><g id="rainbow-2" data-name="rainbow"><path id="rainbow_red" class="cls-3" d="M108.15,70.19c114.9,5.22,114.25,113.2,114.25,113.2h19.15s-6.14-128-133.4-130.62h0C-19,58-25.55,183.39-25.55,183.39H-6.4s-.35-108,114.55-113.2Z"/><path id="rainbow_orange" class="cls-4" d="M108.15,87.17C201.07,91.52,206,183.39,206,183.39h17s.56-113.2-114.81-113.2S-6.4,183.39-6.4,183.39h17s1.83-91,97.57-96.22Z"/><path id="rainbow_yellow" class="cls-5" d="M108.15,105.13c76,1,80.31,78.26,80.31,78.26H206s-3.54-92.63-97.83-96.22h0c-94.29,3.59-97.57,96.22-97.57,96.22H28.11s4-77.28,80-78.26Z"/><path id="rainbow_green" class="cls-6" d="M108.15,121.13c60.22,2.18,62.95,62.26,62.95,62.26h18.49s-6-78.59-81.44-78.26c-75.45-.33-80,78.26-80,78.26H46.6S47.93,123.31,108.15,121.13Z"/><path id="rainbow_blue" class="cls-7" d="M108.15,139.42c38.93-1.64,45.54,44,45.54,44H173s-7.26-63.34-64.8-63.34-63.61,63.34-63.61,63.34h17.2S69.22,137.78,108.15,139.42Z"/><path id="rainbow_purple" class="cls-8" d="M108.15,157.38c26.52,0,29,26,29,26h17.31s-1.82-43.32-46.3-44.63C63.67,140.07,61,183.39,61,183.39H78.3S81.63,157.38,108.15,157.38Z"/></g></g></g><g id="fist-2" data-name="fist"><path id="fist_hand" class="cls-9" d="M109.23,157.85s19.68.91,19-7.1c0,0-3.26-14-3.6-17.44s-1.78-5.5,2.63-7.9,6.67-7.55,6.65-15.1,0-24.88,0-24.88-.42-7.72-6.65-7.72-3.32,5.32-9.15.68a4.41,4.41,0,0,0-5.15.34,17.48,17.48,0,0,1-3.72,1.21H107.5a17.68,17.68,0,0,1-3.72-1.21,4.42,4.42,0,0,0-5.15-.34c-5.83,4.64-2.91-.68-9.14-.68s-6.66,7.72-6.66,7.72,0,17.33,0,24.88,2.25,12.7,6.66,15.1,3,4.46,2.62,7.9-3.6,17.44-3.6,17.44c-.69,8,19,7.1,19,7.1Z"/><path id="shadow" class="cls-10" d="M82.83,96.3s5.22,4.92,7.85,3.54,4.12-4,5.72-2.74,2.75,4,5.15,1.09,2.18-8.19,10.3-8.3,19.5-1,22.05.91v5.38a21.3,21.3,0,0,0-9.24-2.63c-4.69,0-9.49.8-10.87.69s-6.4-.69-7,3.09-3.43,6.4,7.21,8.46l3.32.8s-4.81,5.84-5.72,8.58-4.23,3.09-4.69,0a4.28,4.28,0,0,1,1.44-3.43c1.65-1.49-1.67-3.09-2-3.43a20.46,20.46,0,0,0-9.16-4.12c-4.57-.57-7.09.92-8.81.69a52.43,52.43,0,0,1-5.55-1.41Z"/><rect id="highlight1" class="cls-11" x="87.19" y="84.17" width="4.01" height="3.08" rx="1.06"/><rect id="highlight2" class="cls-11" x="99.55" y="84.17" width="4.01" height="3.08" rx="1.06"/><rect id="highlight3" class="cls-11" x="113.97" y="84.17" width="4.01" height="3.08" rx="1.06"/><rect id="highlight4" class="cls-11" x="125.15" y="83.86" width="5.55" height="3.08" rx="1.06"/><path id="nail" class="cls-11" d="M112.08,94.14s3.08,3.53,0,4.9-5,.57-5.27-1.71S108.3,94.14,112.08,94.14Z"/></g></g></svg>