<svg xmlns="http://www.w3.org/2000/svg" viewBox="0 0 216 216"><defs><style>.cls-1{fill:#e51e46;}.cls-2{fill:#f48002;}.cls-3{fill:#fbae01;}.cls-4{fill:#94b740;}.cls-5{fill:#6ec9ef;}.cls-6{fill:#a96fda;}</style></defs><title>azores_mikka_SVGicons</title><g id="rainbow"><path id="rainbow_red" class="cls-1" d="M108.07,85c55.27,2.51,55,54.44,55,54.44h9.21s-2.95-61.56-64.16-62.82h0c-61.16,2.51-64.3,62.82-64.3,62.82H53S52.81,87.48,108.07,85Z"/><path id="rainbow_orange" class="cls-2" d="M108.07,93.13c44.69,2.1,47.06,46.28,47.06,46.28h8.16S163.56,85,108.07,85,53,139.41,53,139.41h8.17S62,95.65,108.07,93.13Z"/><path id="rainbow_yellow" class="cls-3" d="M108.07,101.77c36.55.47,38.63,37.64,38.63,37.64h8.43s-1.71-44.55-47.06-46.28h0c-45.35,1.73-46.92,46.28-46.92,46.28h8.42s2-37.17,38.5-37.64Z"/><path id="rainbow_green" class="cls-4" d="M108.07,109.47c29,1,30.28,29.94,30.28,29.94h8.89s-2.88-37.8-39.17-37.64c-36.29-.16-38.5,37.64-38.5,37.64h8.9S79.11,110.51,108.07,109.47Z"/><path id="rainbow_blue" class="cls-5" d="M108.07,118.26c18.72-.78,21.91,21.15,21.91,21.15h9.26S135.75,109,108.07,109s-30.59,30.46-30.59,30.46h8.27S89.35,117.48,108.07,118.26Z"/><path id="rainbow_purple" class="cls-6" d="M108.07,126.9c12.76,0,13.94,12.51,13.94,12.51h8.33s-.88-20.83-22.27-21.46c-21.39.63-22.68,21.46-22.68,21.46h8.32S95.32,126.9,108.07,126.9Z"/></g></svg>