<svg xmlns="http://www.w3.org/2000/svg" xmlns:xlink="http://www.w3.org/1999/xlink" viewBox="0 0 216 216"><defs><style>.cls-1{fill:#fed1de;}.cls-2{clip-path:url(#clip-path);}.cls-3{fill:#e51e46;}.cls-4{fill:#f48002;}.cls-5{fill:#fbae01;}.cls-6{fill:#94b740;}.cls-7{fill:#6ec9ef;}.cls-8{fill:#a96fda;}.cls-9{fill:none;}</style><clipPath id="clip-path"><path id="heart" class="cls-1" d="M107.81,73.26S127.68,45.93,154.73,68c0,0,17.94,16.29,2.21,38.64L107.81,156.6h.38L59.06,106.65C43.33,84.3,61.27,68,61.27,68c27-22.08,46.92,5.25,46.92,5.25Z"/></clipPath></defs><title>azores_mikka_SVGicons</title><g id="heart-2" data-name="heart"><g id="heart-3" data-name="heart"><path id="heart-4" data-name="heart" class="cls-1" d="M107.81,73.26S127.68,45.93,154.73,68c0,0,17.94,16.29,2.21,38.64L107.81,156.6h.38L59.06,106.65C43.33,84.3,61.27,68,61.27,68c27-22.08,46.92,5.25,46.92,5.25Z"/><g class="cls-2"><g id="heart_rainbow"><path id="hrainbow_red" class="cls-3" d="M108.09,76.12c66.59,3,66.21,65.61,66.21,65.61h11.1S181.84,67.55,108.09,66h0c-73.71,3-77.49,75.7-77.49,75.7H41.7s-.21-62.58,66.39-65.61Z"/><path id="hrainbow_orange" class="cls-4" d="M108.09,86c53.85,2.52,56.7,55.76,56.7,55.76h9.84s.32-65.61-66.54-65.61S41.7,141.73,41.7,141.73h9.84S52.6,89,108.09,86Z"/><path id="hrainbow_yellow" class="cls-5" d="M108.09,96.37c44,.57,46.54,45.36,46.54,45.36h10.16S162.73,88.05,108.09,86h0c-54.65,2.08-56.55,55.76-56.55,55.76H61.7S64,96.94,108.09,96.37Z"/><path id="hrainbow_green" class="cls-6" d="M108.09,105.65c34.9,1.26,36.48,36.08,36.48,36.08h10.72s-3.47-45.54-47.2-45.36c-43.73-.18-46.39,45.36-46.39,45.36H72.42S73.19,106.91,108.09,105.65Z"/><path id="hrainbow_blue" class="cls-7" d="M108.09,116.25c22.56-1,26.39,25.48,26.39,25.48h11.16S141.43,105,108.09,105s-36.87,36.71-36.87,36.71h10S85.53,115.3,108.09,116.25Z"/><path id="hrainbow_purple" class="cls-8" d="M108.09,126.66c15.37,0,16.8,15.07,16.8,15.07h10s-1.06-25.11-26.83-25.86c-25.78.75-27.34,25.86-27.34,25.86h10S92.72,126.66,108.09,126.66Z"/></g><path id="heart-5" data-name="heart" class="cls-9" d="M106.34,73.26S126.21,45.93,153.26,68c0,0,17.94,16.29,2.21,38.64L106.34,156.6h.38L57.6,106.65C41.86,84.3,59.8,68,59.8,68c27.05-22.08,46.92,5.25,46.92,5.25Z"/></g></g></g></svg>