<svg xmlns="http://www.w3.org/2000/svg" viewBox="0 0 216 216"><defs><style>.cls-1{fill:#fbae01;}.cls-2{fill:#e59a03;}.cls-3{fill:#94b740;}.cls-4{fill:#f48002;}.cls-5{fill:#e51e46;}.cls-6{fill:#6ec9ef;}.cls-7{fill:#a96fda;}</style></defs><title>azores_mikka_SVGicons</title><g id="ring"><g id="ringband"><path id="ring-2" data-name="ring" class="cls-1" d="M108,74.72a44,44,0,1,0,44,44A44,44,0,0,0,108,74.72Zm-.18,78.94a34,34,0,1,1,34-34A34,34,0,0,1,107.82,153.66Z"/><polygon id="ringfeature_left" class="cls-2" points="83.98 80.11 91.05 91.38 97.42 87.35 90.7 75.81 83.98 80.11"/><polygon id="ringfeature_right" class="cls-2" points="131.62 80.11 124.55 91.38 118.18 87.35 124.9 75.81 131.62 80.11"/></g><polygon id="diamond_green" class="cls-3" points="99.48 69.48 107.95 53.2 116.67 69.48 99.48 69.48"/><polygon id="diamond_orange" class="cls-4" points="116.67 69.48 125.41 53.2 135.67 69.48 116.67 69.48"/><polygon id="diamond_red" class="cls-5" points="80.57 69.48 90.43 53.2 99.48 69.48 80.57 69.48"/><polygon id="diamond_blue" class="cls-6" points="107.95 53.2 99.49 69.48 90.43 53.2 107.95 53.2"/><polygon id="diamond_purple" class="cls-7" points="125.45 53.2 116.65 69.48 108 53.2 125.45 53.2"/><polygon id="diamondb_purple" class="cls-7" points="80.57 69.48 107.98 99.83 99.48 69.48 80.57 69.48"/><polygon id="diamondb_blue" class="cls-6" points="135.57 69.48 107.98 99.83 116.67 69.48 135.57 69.48"/><polygon id="diamondb_yellow" class="cls-1" points="99.48 69.48 116.67 69.48 107.98 99.83 99.48 69.48"/></g></svg>