<svg xmlns="http://www.w3.org/2000/svg" viewBox="0 0 216 216"><defs><style>.cls-1,.cls-7{fill:#a96fda;}.cls-1,.cls-2{stroke:#fed1de;stroke-miterlimit:10;stroke-width:4px;}.cls-2,.cls-3{fill:#e51e46;}.cls-4{fill:#f48002;}.cls-5{fill:#94b740;}.cls-6{fill:#6ec9ef;}</style></defs><title>azores_mikka_SVGicons</title><g id="hands"><path id="hand_held" class="cls-1" d="M131.64,147.47s7.52.55,9-8.51c0,0-.51-1.14,1.31-1s7.15-1.79,7.94-7.34a4.23,4.23,0,0,1,.81-2.1c.7-.82-1.2-3.73-3.25-5.78L107,82.57s-18.19-19.81-43-.44c0,0-23.43,22,3.9,50.63l52.18,24.06s5.08,1.26,8.27-2.37a9,9,0,0,0,2.85-5.68S130.68,147.5,131.64,147.47Z"/><path id="hand_holding" class="cls-2" d="M83.69,106.73,106,84.52s19.77-16.68,41.53-1.58,10.89,40.93,3.14,45.61c0,0,1.37-1-2.38-4.85L119.93,96,105.67,110S94.49,120,83.69,106.73Z"/><rect id="finger1" class="cls-2" x="71.63" y="116.52" width="14.98" height="26.39" rx="5.45" transform="translate(114.9 -17.95) rotate(45)"/><rect id="finger2" class="cls-2" x="80.4" y="125.4" width="14.98" height="26.39" rx="5.45" transform="translate(123.74 -21.55) rotate(45)"/><rect id="finger3" class="cls-2" x="90" y="134.9" width="14.98" height="26.39" rx="5.45" transform="translate(133.27 -25.56) rotate(45)"/><rect id="finger4" class="cls-2" x="100.46" y="145.47" width="14.98" height="26.39" rx="5.45" transform="translate(143.81 -29.86) rotate(45)"/><rect id="shine_red" class="cls-3" x="42.37" y="61.92" width="7.53" height="17.76" rx="3.76" transform="translate(-35.16 47.71) rotate(-41.05)"/><rect id="shine_orange" class="cls-4" x="72.37" y="47.16" width="7.53" height="17.76" rx="3.76" transform="translate(-11.69 21.06) rotate(-14.64)"/><rect id="shine_green" class="cls-5" x="105.82" y="42.98" width="7.53" height="17.76" rx="3.76" transform="translate(2.34 -4.68) rotate(2.47)"/><rect id="shine_blue" class="cls-6" x="140.58" y="50.16" width="7.53" height="17.76" rx="3.76" transform="translate(48.86 -64.26) rotate(30)"/><rect id="shine_purple" class="cls-7" x="166.13" y="68.92" width="7.53" height="17.76" rx="3.76" transform="translate(91.43 -91.79) rotate(40.57)"/></g></svg>